# xmcd
#
# Track frame offsets:
#	182
#	14012
#	28022
#	40692
#	56447
#	68957
#	83325
#	98270
#	112237
#	126002
#	138730
#	152000
#	164992
#	179862
#
# Disc length: 2595 seconds
#
# Revision: 0
# Processed by: cddbd v1.4PL0 Copyright (c) Steve Scherf et al.
# Submitted via: EasyCDDAExtractor 4.6.9.1
#
DISCID=c10a210e
DTITLE=Various Blues - Georgia Blues, 1927-1933
DYEAR=1900
DGENRE=Blues
TTITLE0=Wait and Listen. Fred McMullen. 1933
TTITLE1=Rolling Mill Blues. Peg Leg Howell. 1929
TTITLE2=Police Dog Blues. Blind Blake. 1929
TTITLE3=No Woman No Nickel. Bumble Bee Slim. 1931
TTITLE4=Weak-Minded Blues. Willie Baker. 1929
TTITLE5=Unnamed Blues. Barbecue Bob. 1929
TTITLE6=Doodle Hole Blues. Charlie Lincoln. 1930
TTITLE7=Can't Be Trusted Blues. Sylvester Weaver. 1927
TTITLE8=That'll Never Happen No More. Blind Blake. 1927
TTITLE9=Rising River Blues. George Carter. 1929
TTITLE10=Rainy Night Blues. Gitfiddle Jim. 1930
TTITLE11=Hot Jelly Roll Blues. George Carter. 1929
TTITLE12=Crooked Woman Blues. Willie Baker. 1929
TTITLE13=Paddlin' Blues. Gitfiddle Jim. 1930
EXTD=
EXTT0=
EXTT1=
EXTT2=
EXTT3=
EXTT4=
EXTT5=
EXTT6=
EXTT7=
EXTT8=
EXTT9=
EXTT10=
EXTT11=
EXTT12=
EXTT13=
PLAYORDER=
